<?xml version="1.0" encoding="utf-8"?>
<!-- Generator: Adobe Illustrator 26.3.1, SVG Export Plug-In . SVG Version: 6.00 Build 0)  -->
<svg version="1.1" id="Capa_1" xmlns="http://www.w3.org/2000/svg" xmlns:xlink="http://www.w3.org/1999/xlink" x="0px" y="0px"
	 viewBox="0 0 773.19 174.63" style="enable-background:new 0 0 773.19 174.63;" xml:space="preserve">
<style type="text/css">
	.st0{fill-rule:evenodd;clip-rule:evenodd;fill:#004D74;}
	.st1{fill-rule:evenodd;clip-rule:evenodd;fill:#90358B;}
	.st2{fill-rule:evenodd;clip-rule:evenodd;fill:#12B4BA;}
	.st3{fill-rule:evenodd;clip-rule:evenodd;fill:#5B9F32;}
	.st4{fill-rule:evenodd;clip-rule:evenodd;fill:#E8471C;}
	.st5{fill:#004D74;}
</style>
<g>
	<g>
		<path class="st0" d="M70.7,133.34l-2.64-0.46c0,0-0.01,0-0.03,0s-0.01,0-0.03-0.01c-0.46-0.07-0.97-0.27-1.49-0.55
			c-0.73-0.4-1.33-0.94-1.78-1.51l-19.36-30.22l6.36-4.14l6.92,1.3l4.83,0.93l17.84,27.8L70.7,133.34z"/>
		<path class="st0" d="M54.69,130.79l-19.7-2.87c-0.54-0.15-1.08-0.45-1.52-0.9c-0.34-0.33-0.6-0.7-0.78-1.09
			c-0.01-0.03-0.03-0.04-0.04-0.07l-0.09-0.18l0,0L2.88,66.94c0.03-0.03,0.06-0.06,0.07-0.09c-0.03-0.04-0.06-0.09-0.09-0.13
			c-0.13-0.21-0.28-0.42-0.42-0.63L0.28,61.8c-1.28-4.18,1.85-5.27,8.2-4.41l0.72,0.12c-0.06-0.01,0.09,0,0.27,0.04v-0.01
			c0.28,0.04,0.55,0.09,0.84,0.15c0-0.01,0-0.01,0-0.01l6.93,1.08l31.61,4.9l-6.07,17.13l-14.48-2.26L54.69,130.79z"/>
		<path class="st0" d="M115.3,139.15l-16.94-2.23h-0.04c0,0,0,0,0.01,0h0.03l0.12,0.01c-0.48-0.13-0.96-0.4-1.36-0.79
			c-0.58-0.55-0.93-1.24-1.03-1.9l0.01,0.09L81.12,74.11l17.12,2.78l-0.25-0.04c0.51,0.15,1.02,0.42,1.46,0.84
			c0.58,0.54,0.93,1.22,1.02,1.88l-0.01-0.09L115.3,139.15z"/>
		<path class="st0" d="M148.25,144.2l-16.01-2.51c-0.58-0.12-1.15-0.42-1.61-0.9c-0.54-0.55-0.82-1.24-0.85-1.9v0.07l-8.93-94.77
			l11.53-1.14l5.3,1.22c0.45,0.15,0.9,0.42,1.25,0.81c0.43,0.46,0.72,1.02,0.81,1.57l9.2,97.46L148.25,144.2z"/>
		<path class="st0" d="M177.69,31.28l-9.31-30.82l17.91,1.82c0.3,0.04,0.58,0.16,0.85,0.34c0.46,0.3,0.82,0.73,1.03,1.22l7.42,24.63
			l-0.01-0.06c0,0.03,0.01,0.04,0.03,0.07l0.24,0.82c0.06,0.37,0.01,0.69-0.13,0.91c-0.19,0.3-0.54,0.4-0.99,0.34l-16.01-4.03
			L177.69,31.28z"/>
		<path class="st1" d="M54.66,130.77l-17.45-2.54l0.01-0.18l-0.01,0.18l-1.93-0.28c0.42-0.06,0.82-0.21,1.2-0.46
			c0.49-0.36,0.82-0.87,0.96-1.42l3.08-28.97v0.04c0.03-0.66,0.31-1.3,0.85-1.76c0.37-0.33,0.82-0.54,1.3-0.6c0.04,0,0.1,0,0.15,0
			l18.7,3.5v0.07v-0.07l0.12,0.03l1.87,0.34c-0.43,0.03-0.87,0.16-1.24,0.42c-0.52,0.36-0.85,0.88-0.97,1.45l-2.91,27.43
			c-0.18,0.84-0.64,1.61-1.39,2.15C56.29,130.61,55.47,130.82,54.66,130.77z"/>
		<path class="st2" d="M89.2,136.33l-19.18-3.12l-1.6-0.25l-0.52-0.09h0.03c0.52,0.04,1.06-0.16,1.49-0.64
			c0.42-0.46,0.69-1.11,0.79-1.82l4.03-54.5c0.09-0.67,0.42-1.31,0.97-1.79c0.54-0.48,1.21-0.73,1.88-0.75l0.03-0.01
			c0.03,0,0.04,0,0.07,0l18.57,3.15l1.49,0.24l0.88,0.15h-0.03c-0.57-0.06-1.15,0.1-1.63,0.51c-0.48,0.4-0.78,0.99-0.9,1.61
			l-4.05,54.81c-0.13,0.67-0.49,1.31-1.05,1.79C90.11,135.97,89.66,136.19,89.2,136.33z"/>
		<path class="st3" d="M118.28,139.5l-17.63-2.27l-2.23-0.28c0.52,0.01,1.06-0.13,1.51-0.46c0.55-0.37,0.9-0.93,1.03-1.54
			l12.37-91.86v0.06c0.12-0.97,0.6-1.94,1.43-2.63c0.75-0.61,1.63-0.93,2.49-0.94h0.03l-0.04-0.01l-0.39-0.01c0.06,0,0.13,0,0.22,0
			c0.04,0,0.09,0,0.13,0l16.97,3.96l-0.13,1.05l0.15-1.05l3.67,0.85h-0.01c-0.88-0.16-1.79-0.04-2.57,0.39
			c-0.81,0.48-1.33,1.22-1.54,2.06l-12.23,90.8c-0.15,0.57-0.48,1.09-1,1.45c-0.51,0.34-1.11,0.49-1.67,0.45h-0.03h0.04H118.28z"/>
		<path class="st4" d="M154.99,145.23h-0.03l0.3-1.39L154.99,145.23z M154.66,145.19l-20.08-3.12v-0.01h-0.03l-2.14-0.33l-0.58-0.1
			c0.01,0,0.03,0,0.03,0c0.64,0.07,1.34-0.06,1.94-0.43c0.63-0.4,1.08-0.99,1.28-1.64L162.44,2.33c0.16-0.61,0.52-1.18,1.08-1.58
			c0.55-0.4,1.21-0.6,1.84-0.57L163.46,0l1.9,0.18L183.55,2l2.39,0.24V2.23l0.3,0.03c-0.01,0.01-0.01,0.01-0.03,0.01
			c-0.64-0.03-1.33,0.15-1.91,0.55c-0.67,0.48-1.12,1.17-1.3,1.88l0.55-2.7l-28.19,141.3c-0.16,0.52-0.51,0.99-1,1.3
			c-0.34,0.22-0.72,0.33-1.09,0.36L154.66,145.19z"/>
		<path class="st0" d="M43.78,151.81c2.41-9.9,12.38-15.98,22.29-13.59c9.9,2.41,16,12.38,13.59,22.29
			c-2.39,9.9-12.38,16-22.29,13.61C47.47,171.7,41.38,161.71,43.78,151.81z"/>
		<path class="st0" d="M108.75,156.57c1.84-7.6,9.52-12.29,17.12-10.44c7.62,1.84,12.29,9.52,10.46,17.12
			c-1.85,7.62-9.52,12.29-17.13,10.46C111.59,171.87,106.9,164.19,108.75,156.57z"/>
	</g>
	<g>
		<path class="st5" d="M279.49,52.36c0.92,0.92,1.38,2.09,1.38,3.53s-0.46,2.61-1.38,3.53c-0.92,0.92-2.09,1.38-3.53,1.38h-21.97
			v64.68c0,1.5-0.51,2.76-1.53,3.78c-1.02,1.02-2.28,1.53-3.78,1.53c-1.5,0-2.76-0.51-3.78-1.53c-1.02-1.02-1.53-2.28-1.53-3.78
			V60.79h-22.07c-1.43,0-2.61-0.46-3.53-1.38c-0.92-0.92-1.38-2.09-1.38-3.53s0.46-2.61,1.38-3.53c0.92-0.92,2.09-1.38,3.53-1.38
			h54.67C277.39,50.98,278.57,51.44,279.49,52.36z"/>
		<path class="st5" d="M325.11,105.19c-0.89,0.85-2.01,1.28-3.37,1.28h-38.83c0.75,4.77,2.91,8.62,6.49,11.55
			c3.58,2.93,7.95,4.39,13.13,4.39c2.04,0,4.17-0.37,6.39-1.12c2.21-0.75,4.04-1.67,5.47-2.76c0.95-0.75,2.08-1.12,3.37-1.12
			c1.29,0,2.32,0.34,3.07,1.02c1.23,1.02,1.84,2.18,1.84,3.47c0,1.23-0.55,2.25-1.64,3.07c-2.32,1.84-5.2,3.34-8.63,4.5
			c-3.44,1.16-6.73,1.74-9.86,1.74c-5.59,0-10.59-1.21-15.02-3.63c-4.43-2.42-7.89-5.77-10.37-10.07
			c-2.49-4.29-3.73-9.16-3.73-14.61c0-5.45,1.18-10.34,3.53-14.66c2.35-4.33,5.62-7.7,9.81-10.12c4.19-2.42,8.94-3.63,14.26-3.63
			c5.24,0,9.77,1.16,13.59,3.47c3.81,2.32,6.74,5.55,8.79,9.71c2.04,4.16,3.07,8.93,3.07,14.31
			C326.44,103.27,326,104.34,325.11,105.19z M288.89,87.36c-3.1,2.73-5.06,6.37-5.88,10.93h34.03c-0.61-4.56-2.32-8.21-5.11-10.93
			c-2.79-2.72-6.44-4.09-10.93-4.09C296.02,83.27,291.99,84.63,288.89,87.36z"/>
		<path class="st5" d="M380.19,77.45c3.75,2.04,6.68,5.02,8.79,8.94c2.11,3.92,3.17,8.63,3.17,14.15v25.14
			c0,1.5-0.49,2.74-1.48,3.73c-0.99,0.99-2.23,1.48-3.73,1.48c-1.5,0-2.74-0.49-3.73-1.48c-0.99-0.99-1.48-2.23-1.48-3.73v-25.14
			c0-5.52-1.48-9.69-4.45-12.52c-2.96-2.83-6.9-4.24-11.8-4.24c-2.86,0-5.47,0.58-7.82,1.74c-2.35,1.16-4.19,2.73-5.52,4.7
			c-1.33,1.98-1.99,4.19-1.99,6.64v28.82c0,1.5-0.48,2.74-1.43,3.73c-0.95,0.99-2.21,1.48-3.78,1.48c-1.5,0-2.74-0.49-3.73-1.48
			c-0.99-0.99-1.48-2.23-1.48-3.73V80.1c0-1.57,0.49-2.83,1.48-3.78c0.99-0.95,2.23-1.43,3.73-1.43c1.57,0,2.83,0.48,3.78,1.43
			c0.95,0.95,1.43,2.21,1.43,3.78v1.12c2.18-2.18,4.77-3.87,7.77-5.06c3-1.19,6.2-1.79,9.61-1.79
			C372.22,74.38,376.44,75.4,380.19,77.45z"/>
		<path class="st5" d="M461.43,52.41c0.95,0.95,1.43,2.21,1.43,3.78v46.6c0,5.31-1.24,10.13-3.73,14.46
			c-2.49,4.33-5.86,7.73-10.12,10.22c-4.26,2.49-9.01,3.73-14.25,3.73c-5.25,0-10.03-1.24-14.36-3.73
			c-4.33-2.49-7.71-5.89-10.17-10.22c-2.45-4.33-3.68-9.15-3.68-14.46s1.14-10.13,3.42-14.46c2.28-4.32,5.42-7.71,9.4-10.17
			c3.99-2.45,8.43-3.68,13.34-3.68c3.95,0,7.63,0.82,11.04,2.45c3.41,1.64,6.3,3.92,8.69,6.85V56.19c0-1.57,0.49-2.83,1.48-3.78
			c0.99-0.95,2.23-1.43,3.73-1.43C459.21,50.98,460.47,51.46,461.43,52.41z M444,119.5c2.76-1.67,4.92-3.97,6.49-6.9
			c1.57-2.93,2.35-6.2,2.35-9.81c0-3.61-0.78-6.86-2.35-9.76c-1.57-2.89-3.73-5.18-6.49-6.85c-2.76-1.67-5.84-2.5-9.25-2.5
			c-3.41,0-6.49,0.84-9.25,2.5c-2.76,1.67-4.94,3.95-6.54,6.85c-1.6,2.9-2.4,6.15-2.4,9.76c0,3.61,0.8,6.88,2.4,9.81
			c1.6,2.93,3.78,5.23,6.54,6.9c2.76,1.67,5.84,2.5,9.25,2.5C438.16,122,441.24,121.17,444,119.5z"/>
		<path class="st5" d="M530.09,105.19c-0.89,0.85-2.01,1.28-3.37,1.28h-38.83c0.75,4.77,2.91,8.62,6.49,11.55
			c3.58,2.93,7.95,4.39,13.13,4.39c2.04,0,4.17-0.37,6.39-1.12c2.21-0.75,4.04-1.67,5.47-2.76c0.95-0.75,2.08-1.12,3.37-1.12
			c1.29,0,2.32,0.34,3.07,1.02c1.23,1.02,1.84,2.18,1.84,3.47c0,1.23-0.55,2.25-1.64,3.07c-2.32,1.84-5.2,3.34-8.63,4.5
			c-3.44,1.16-6.73,1.74-9.86,1.74c-5.59,0-10.59-1.21-15.02-3.63c-4.43-2.42-7.89-5.77-10.37-10.07
			c-2.49-4.29-3.73-9.16-3.73-14.61c0-5.45,1.18-10.34,3.53-14.66c2.35-4.33,5.62-7.7,9.81-10.12c4.19-2.42,8.94-3.63,14.26-3.63
			c5.24,0,9.77,1.16,13.59,3.47c3.81,2.32,6.74,5.55,8.79,9.71c2.04,4.16,3.07,8.93,3.07,14.31
			C531.42,103.27,530.98,104.34,530.09,105.19z M493.87,87.36c-3.1,2.73-5.06,6.37-5.88,10.93h34.03
			c-0.61-4.56-2.32-8.21-5.11-10.93c-2.79-2.72-6.44-4.09-10.93-4.09C501,83.27,496.97,84.63,493.87,87.36z"/>
		<path class="st5" d="M585.17,77.45c3.75,2.04,6.68,5.02,8.79,8.94c2.11,3.92,3.17,8.63,3.17,14.15v25.14
			c0,1.5-0.49,2.74-1.48,3.73c-0.99,0.99-2.23,1.48-3.73,1.48c-1.5,0-2.74-0.49-3.73-1.48c-0.99-0.99-1.48-2.23-1.48-3.73v-25.14
			c0-5.52-1.48-9.69-4.45-12.52c-2.96-2.83-6.9-4.24-11.8-4.24c-2.86,0-5.47,0.58-7.82,1.74c-2.35,1.16-4.19,2.73-5.52,4.7
			c-1.33,1.98-1.99,4.19-1.99,6.64v28.82c0,1.5-0.48,2.74-1.43,3.73c-0.95,0.99-2.21,1.48-3.78,1.48c-1.5,0-2.74-0.49-3.73-1.48
			c-0.99-0.99-1.48-2.23-1.48-3.73V80.1c0-1.57,0.49-2.83,1.48-3.78c0.99-0.95,2.23-1.43,3.73-1.43c1.57,0,2.83,0.48,3.78,1.43
			c0.95,0.95,1.43,2.21,1.43,3.78v1.12c2.18-2.18,4.77-3.87,7.77-5.06c3-1.19,6.2-1.79,9.61-1.79
			C577.2,74.38,581.42,75.4,585.17,77.45z"/>
		<path class="st5" d="M625.23,127.52c-4.29-2.45-7.65-5.84-10.07-10.17c-2.42-4.32-3.63-9.15-3.63-14.46
			c0-5.45,1.18-10.34,3.53-14.66c2.35-4.33,5.64-7.7,9.86-10.12c4.22-2.42,8.99-3.63,14.31-3.63c8.04,0,14.71,3.07,20.03,9.2
			c0.68,0.75,1.02,1.64,1.02,2.66c0,1.5-0.75,2.76-2.25,3.78c-0.68,0.48-1.47,0.72-2.35,0.72c-1.57,0-2.9-0.61-3.99-1.84
			c-1.7-1.84-3.56-3.18-5.57-4.04c-2.01-0.85-4.31-1.28-6.9-1.28c-5.25,0-9.5,1.75-12.77,5.26c-3.27,3.51-4.91,8.16-4.91,13.95
			c0,3.68,0.77,6.97,2.3,9.86c1.53,2.9,3.68,5.16,6.44,6.8c2.76,1.64,5.91,2.45,9.45,2.45c4.63,0,8.38-1.19,11.24-3.58
			c1.29-0.95,2.55-1.43,3.78-1.43c0.95,0,1.84,0.31,2.66,0.92c1.29,1.09,1.94,2.32,1.94,3.68c0,1.02-0.41,1.94-1.23,2.76
			c-4.91,4.56-11.04,6.85-18.39,6.85C634.36,131.2,629.52,129.97,625.23,127.52z"/>
		<path class="st5" d="M721.69,79.39c0,0.68-0.2,1.5-0.61,2.45l-31.27,70.3c-0.82,2.11-2.15,3.17-3.99,3.17
			c-0.68,0-1.5-0.2-2.45-0.61c-2.04-0.89-3.07-2.21-3.07-3.99c0-0.82,0.2-1.64,0.61-2.45l10.22-22.99l-22.99-43.63
			c-0.34-0.61-0.51-1.33-0.51-2.15c0-0.88,0.27-1.7,0.82-2.45c0.54-0.75,1.26-1.33,2.15-1.74c0.61-0.27,1.29-0.41,2.04-0.41
			c1.91,0,3.34,0.95,4.29,2.86l18.7,37.2l16.45-37.09c0.88-1.98,2.21-2.96,3.99-2.96c0.88,0,1.7,0.17,2.45,0.51
			C720.63,76.22,721.69,77.55,721.69,79.39z"/>
		<path class="st5" d="M738.14,129.05c-4.09-1.43-7.29-3.3-9.61-5.62c-0.89-0.88-1.33-1.94-1.33-3.17c0-1.64,0.68-2.96,2.04-3.98
			c1.29-0.95,2.49-1.43,3.58-1.43c1.36,0,2.66,0.61,3.88,1.84c1.29,1.43,3.23,2.67,5.82,3.73c2.59,1.06,5.35,1.58,8.28,1.58
			c3.88,0,6.9-0.65,9.04-1.94c2.15-1.29,3.22-3.03,3.22-5.21c0-2.11-1.06-3.87-3.17-5.26c-2.11-1.4-5.69-2.57-10.73-3.53
			c-13.08-2.52-19.62-7.9-19.62-16.15c0-3.34,0.99-6.16,2.96-8.48c1.97-2.32,4.56-4.05,7.77-5.21c3.2-1.16,6.61-1.74,10.22-1.74
			c4.43,0,8.4,0.72,11.9,2.15c3.51,1.43,6.28,3.41,8.33,5.93c0.88,1.09,1.33,2.18,1.33,3.27c0,1.16-0.58,2.21-1.74,3.17
			c-0.75,0.55-1.7,0.82-2.86,0.82c-1.77,0-3.37-0.65-4.8-1.94c-1.7-1.57-3.51-2.67-5.42-3.32c-1.91-0.65-4.22-0.97-6.95-0.97
			c-3.13,0-5.71,0.53-7.71,1.58c-2.01,1.06-3.01,2.54-3.01,4.44c0,1.36,0.34,2.5,1.02,3.42c0.68,0.92,1.97,1.77,3.88,2.55
			c1.91,0.78,4.67,1.55,8.28,2.3c7.42,1.5,12.69,3.58,15.79,6.23c3.1,2.66,4.65,6.1,4.65,10.32c0,3.13-0.85,5.98-2.55,8.53
			c-1.7,2.55-4.21,4.56-7.51,6.03c-3.31,1.47-7.27,2.2-11.9,2.2C746.59,131.2,742.23,130.48,738.14,129.05z"/>
	</g>
</g>
</svg>
